<?xml version="1.0" encoding="UTF-8" standalone="no"?>
<!-- Created with Inkscape (http://www.inkscape.org/) -->

<svg
   width="40"
   height="40"
   viewBox="0 0 10.583333 10.583333"
   version="1.1"
   id="svg5"
   inkscape:version="1.2.2 (732a01da63, 2022-12-09)"
   xmlns:inkscape="http://www.inkscape.org/namespaces/inkscape"
   xmlns:sodipodi="http://sodipodi.sourceforge.net/DTD/sodipodi-0.dtd"
   xmlns="http://www.w3.org/2000/svg"
   xmlns:svg="http://www.w3.org/2000/svg">
  <sodipodi:namedview
     id="namedview7"
     pagecolor="#ffffff"
     bordercolor="#999999"
     borderopacity="1"
     inkscape:showpageshadow="0"
     inkscape:pageopacity="0"
     inkscape:pagecheckerboard="true"
     inkscape:deskcolor="#d1d1d1"
     inkscape:document-units="mm"
     showgrid="false"
     inkscape:zoom="13.125"
     inkscape:cx="14.628571"
     inkscape:cy="18.438095"
     inkscape:window-width="1366"
     inkscape:window-height="705"
     inkscape:window-x="-8"
     inkscape:window-y="-8"
     inkscape:window-maximized="1"
     inkscape:current-layer="layer1" />
  <defs
     id="defs2" />
  <g
     inkscape:label="Camada 1"
     inkscape:groupmode="layer"
     id="layer1">
    <path
       style="fill:#000000;stroke-width:0.441719"
       id="path691"
       d="M 0.38363541,6.1850819 C 0.57602489,6.4266572 0.73991274,6.6961443 0.90556274,6.9631292 1.2322941,7.489737 1.002278,7.1058041 1.3110803,7.6305962 1.5840761,8.1173479 1.8492424,8.6101535 2.1176974,9.1004724 2.2546012,9.3456258 2.3609125,9.6130197 2.4918132,9.862253 c 0.030471,0.05802 0.039815,0.162058 0.097122,0.169661 0.5338333,0.07082 1.073858,0.03794 1.6107868,0.05692 C 4.7217011,9.4111121 5.1294339,8.6259926 5.5731598,7.8778141 6.5064223,6.3042112 5.6319382,7.8191995 6.5673545,6.1821885 7.3613794,4.8222314 8.1746481,3.4779452 9.006558,2.1501969 9.2728082,1.715028 9.5590155,1.2945791 9.8868976,0.92187005 10.079195,0.7032823 10.126344,0.66738463 10.335271,0.46832162 c 0,0 -1.3800738,-0.14512847 -1.3800738,-0.14512847 v 0 C 8.8583293,0.41879499 8.5730565,0.69569447 8.4868336,0.79994534 8.4268251,0.87250062 8.3775169,0.95648595 8.3234823,1.0353606 8.1011453,1.3599079 7.88446,1.6905407 7.7132991,2.0578261 6.986793,3.4207288 6.2547046,4.779313 5.4789512,6.1039953 5.2559576,6.4777196 4.6984359,7.4204325 4.4572303,7.7925276 4.2831146,8.0611271 4.1020703,8.3234652 3.9174278,8.5820009 3.7366457,8.8351313 3.3183269,9.4048343 3.0664371,9.6354619 2.9755072,9.7187163 2.8654753,9.767575 2.7649943,9.8336311 3.1893528,9.8634398 3.6133604,9.9447562 4.0380695,9.9230645 4.0917097,9.9203201 3.9675986,9.826612 3.9377329,9.7737357 3.90505,9.7158723 3.8806238,9.6520166 3.851008,9.5918812 3.7524331,9.3917301 3.6393441,9.203171 3.5408423,9.002948 3.3791482,8.7101582 3.4607915,8.8565807 3.2958916,8.5636959 3.2535704,8.4871657 3.2148631,8.4077813 3.1704744,8.3329145 3.0098797,8.0620524 2.8243181,7.8114496 2.6739789,7.5316023 2.3921029,7.0589139 2.1261771,6.573045 1.8885325,6.06701 c 0,0 -1.50489709,0.1180715 -1.50489709,0.1180719 z" />
  </g>
</svg>
